HIERARCHY
ROOT Hips
{
  OFFSET 0 0 0
  CHANNELS 6 Xposition Yposition Zposition Zrotation Xrotation Yrotation
  JOINT Spine
  {
    OFFSET 0 10 0
    CHANNELS 3 Zrotation Xrotation Yrotation
    JOINT Neck
    {
      OFFSET 0 15 0
      CHANNELS 3 Zrotation Xrotation Yrotation
      JOINT Head
      {
        OFFSET 0 5 0
        CHANNELS 3 Zrotation Xrotation Yrotation
        End Site
        {
          OFFSET 0 3 0
        }
      }
    }
    JOINT LeftShoulder
    {
      OFFSET 5 12 0
      CHANNELS 3 Zrotation Xrotation Yrotation
      JOINT LeftElbow
      {
        OFFSET 10 0 0
        CHANNELS 3 Zrotation Xrotation Yrotation
        JOINT LeftWrist
        {
          OFFSET 8 0 0
          CHANNELS 3 Zrotation Xrotation Yrotation
          End Site
          {
            OFFSET 4 0 0
          }
        }
      }
    }
    JOINT RightShoulder
    {
      OFFSET -5 12 0
      CHANNELS 3 Zrotation Xrotation Yrotation
      JOINT RightElbow
      {
        OFFSET -10 0 0
        CHANNELS 3 Zrotation Xrotation Yrotation
        JOINT RightWrist
        {
          OFFSET -8 0 0
          CHANNELS 3 Zrotation Xrotation Yrotation
          End Site
          {
            OFFSET -4 0 0
          }
        }
      }
    }
  }
  JOINT LeftHip
  {
    OFFSET 3.5 0 0
    CHANNELS 3 Zrotation Xrotation Yrotation
    JOINT LeftKnee
    {
      OFFSET 0 -15 0
      CHANNELS 3 Zrotation Xrotation Yrotation
      JOINT LeftAnkle
      {
        OFFSET 0 -15 0
        CHANNELS 3 Zrotation Xrotation Yrotation
        End Site
        {
          OFFSET 0 -3 5
        }
      }
    }
  }
  JOINT RightHip
  {
    OFFSET -3.5 0 0
    CHANNELS 3 Zrotation Xrotation Yrotation
    JOINT RightKnee
    {
      OFFSET 0 -15 0
      CHANNELS 3 Zrotation Xrotation Yrotation
      JOINT RightAnkle
      {
        OFFSET 0 -15 0
        CHANNELS 3 Zrotation Xrotation Yrotation
        End Site
        {
          OFFSET 0 -3 5
        }
      }
    }
  }
}
MOTION
Frames: 14
Frame Time: 0.03333333333333333
47.16758728027344 -54.81512248516083 0.001434236764907837 -6.196940399702272 -0.25313029214519395 0.0 -0.0 0.0 0.0 -1.3850748396333676 71.83646234492154 0.0 -0.0 0.0 0.0 -74.05270309538601 0.0 46.70969729438053 -35.51288944383852 0.0 -63.27017449662543 0.0 0.0 0.0 59.327244431330584 0.0 44.04958834871431 63.83489242700517 0.0 72.58502699256591 -0.0 0.0 0.0 10.171168059559733 7.475444738558342 0.0 -16.37784203186447 38.213304307435976 0.0 0.0 -0.0 0.0 -2.613896245214561 -20.29684129674551 -0.0 -2.9165111456622625 16.148041669695473 0.0 0.0 -0.0 0.0
46.97871655225754 -54.90277707576752 0.0020489096641540527 -6.1956523784881625 -0.09843499567587542 0.0 -0.0 0.0 0.0 -0.986830298630936 71.98694129531289 0.0 -0.0 0.0 0.0 -73.47534094619704 0.0 47.91632913793293 -38.64291352136246 0.0 -61.16824800097772 0.0 0.0 0.0 58.79756229653161 0.0 44.93936959105077 62.546661891495084 0.0 73.73359957059621 -0.0 0.0 0.0 10.952929327090516 -10.092413294171028 0.0 -17.845855370345355 31.2028539613138 0.0 0.0 -0.0 0.0 -3.3025000052859985 -14.981527334352577 -0.0 -3.4648032073874773 18.021966303660548 0.0 0.0 -0.0 0.0
46.903371810913086 -55.018019676208496 0.002197176218032837 -5.95206428134797 0.10001459324988812 0.0 -0.0 0.0 0.0 -0.8593531748731648 71.99402629288826 0.0 -0.0 0.0 0.0 -75.69427102197785 0.0 45.06947688329309 -39.60962658269845 0.0 -62.03645152194002 0.0 0.0 0.0 58.05816736002722 0.0 47.08543327919 61.63499605364375 0.0 74.42518587261742 -0.0 0.0 0.0 11.235237103240038 -14.493881979623579 0.0 -18.52199136752946 29.623620675892166 0.0 0.0 -0.0 0.0 -4.418882621464761 -17.056838636273202 -0.0 -4.959318366042831 18.02425321815242 0.0 0.0 -0.0 0.0
46.95481210947037 -55.07568418979645 0.0024572014808654785 -5.644549089396238 -0.293531575086653 0.0 -0.0 0.0 0.0 -0.8752095958488144 72.02071202206132 0.0 -0.0 0.0 0.0 -75.20159958128167 0.0 45.46256036696471 -40.41073494986508 0.0 -61.658887739431506 0.0 0.0 0.0 57.73422404731563 0.0 48.138592277075226 61.707864993321266 0.0 74.1817263306338 -0.0 0.0 0.0 11.392191798758121 -9.73202488637841 0.0 -18.7615367628798 30.914500831171917 0.0 0.0 -0.0 0.0 -5.07771329845822 -15.539118292609222 -0.0 -4.771173661292909 16.211467823095003 0.0 0.0 -0.0 0.0
46.96858525276184 -55.117249488830566 0.0024493783712387085 -5.430836641473573 -0.42475583466234734 0.0 -0.0 0.0 0.0 -1.0141891427608838 71.89183656193872 0.0 -0.0 0.0 0.0 -74.42859776047727 0.0 46.534417274539265 -40.946117048698625 0.0 -61.42433380866898 0.0 0.0 0.0 58.60318284158119 0.0 46.54388234278128 63.42676033082631 0.0 73.18983385717125 -0.0 0.0 0.0 11.460119212775174 -1.1261470240051727 0.0 -18.446140589296284 34.191659413705544 0.0 0.0 -0.0 0.0 -5.330636905719119 -14.512954552737598 -0.0 -4.674783951267694 16.991224076173584 0.0 0.0 -0.0 0.0
47.010886669158936 -55.12830317020416 0.002304092049598694 -5.3546698157168295 -0.9369810146993438 0.0 -0.0 0.0 0.0 -1.1076043635466892 71.92202818396834 0.0 -0.0 0.0 0.0 -75.0082732599374 0.0 45.42252377917212 -41.25354744719485 0.0 -61.26688669110528 0.0 0.0 0.0 58.87169268793683 0.0 46.04584250180778 64.49031970366643 0.0 72.62944170257359 -0.0 0.0 0.0 11.389422747248739 1.9658377494537498 0.0 -18.547050349697578 33.4359240619073 0.0 0.0 -0.0 0.0 -5.397668055990787 -13.660159520374085 -0.0 -4.962224107842748 17.41797744350451 0.0 0.0 -0.0 0.0
46.345849335193634 -55.49188852310181 0.003415718674659729 -5.406102462112218 -0.04470730354004397 0.0 -0.0 0.0 0.0 -1.2786393396570754 71.23270237038713 0.0 -0.0 0.0 0.0 -78.77405698305566 0.0 43.27671917329684 -40.51432641414547 0.0 -62.511316317931204 0.0 0.0 0.0 62.40126901993468 0.0 43.26461066923212 62.988290196263996 0.0 72.34326681942592 -0.0 0.0 0.0 13.182330177238109 -22.944918159136954 0.0 -18.379461704008538 32.63643814807189 0.0 0.0 -0.0 0.0 -8.930322066930955 -12.428126069147794 -0.0 -7.73790591508817 18.70700429780968 0.0 0.0 -0.0 0.0
45.90284526348114 -56.01268112659454 0.003916025161743164 -5.234604399179188 -0.03710270863838311 0.0 -0.0 0.0 0.0 -1.3578321308126866 71.28904886579568 0.0 -0.0 0.0 0.0 -81.61222722489815 0.0 39.13266272352303 -38.94422571694121 0.0 -66.66078547591694 0.0 0.0 0.0 62.654824015826925 0.0 45.123693931588775 62.28957716161424 0.0 72.37328692563666 -0.0 0.0 0.0 15.053414710044866 -29.65923486671032 0.0 -17.365713541208667 36.65244202793191 0.0 0.0 -0.0 0.0 -9.778242215705937 -12.353479042279327 -0.0 -10.946634686293418 25.936799785879973 0.0 0.0 -0.0 0.0
45.35155147314072 -57.00988173484802 0.0021141022443771362 -4.600660810164478 -0.6107198724363413 0.0 -0.0 0.0 0.0 -1.7983694075317835 70.93565262993425 0.0 -0.0 0.0 0.0 -80.74155614063795 0.0 40.26117435521647 -38.18757182316506 0.0 -70.16387037631385 0.0 0.0 0.0 63.76430652139443 0.0 45.00884967092441 66.17036237006674 0.0 68.19951425990932 -0.0 0.0 0.0 18.190283181316982 -32.0885852088724 0.0 -17.099056422654527 36.88065311282954 0.0 0.0 -0.0 0.0 -14.05825582426073 -1.6545383397303348 -0.0 -12.775240949002958 30.50808579182281 0.0 0.0 -0.0 0.0
45.27183026075363 -57.09546208381653 0.0030860304832458496 -4.740190942830313 -0.7635210051569542 0.0 -0.0 0.0 0.0 -2.0939734591001073 70.79652984141649 0.0 -0.0 0.0 0.0 -83.39598452287296 0.0 36.63663123391886 -38.864689842319954 0.0 -69.44539301711264 0.0 0.0 0.0 60.11981409929056 0.0 51.737814187805334 62.00082480605723 0.0 71.04610956735912 -0.0 0.0 0.0 18.86246043979056 -30.483983735614288 0.0 -16.954473493852344 36.48678419905458 0.0 0.0 -0.0 0.0 -14.295537572423516 -1.100190555688609 -0.0 -13.275147683810362 30.833121816576572 0.0 0.0 -0.0 0.0
45.22866755723953 -57.087692618370056 0.0035706907510757446 -4.574641352534089 -1.392015771898403 0.0 -0.0 0.0 0.0 -2.372382667814323 70.53812508554338 0.0 -0.0 0.0 0.0 -82.9200025269971 0.0 37.02523573395116 -39.49143103895785 0.0 -68.53861454551868 0.0 0.0 0.0 61.49576866801328 0.0 51.15874275171122 61.46204029441067 0.0 71.38450144952462 -0.0 0.0 0.0 18.23563107169663 -34.07169389528363 0.0 -17.059737080475436 35.56195157203781 0.0 0.0 -0.0 0.0 -14.324813929775082 -2.554276329884551 -0.0 -13.240417203923862 31.494655786439687 0.0 0.0 -0.0 0.0
45.07335126399994 -57.239341735839844 0.004516541957855225 -4.552997978302395 -1.527081019045928 0.0 -0.0 0.0 0.0 -2.7844977407939395 70.25375410025386 0.0 -0.0 0.0 0.0 -83.43133558716394 0.0 37.7049394115759 -43.52089646552224 0.0 -68.15458181065387 0.0 0.0 0.0 62.145330567797274 0.0 50.45211724321876 62.781855295681865 0.0 70.70692663901254 -0.0 0.0 0.0 19.255228537308906 -32.185243303737685 0.0 -16.82809629300327 36.4615026790697 0.0 0.0 -0.0 0.0 -14.89843179276346 0.4624576776880591 0.0 -13.350123620628656 31.155174084226086 0.0 0.0 -0.0 0.0
44.77275311946869 -57.28614926338196 0.005635246634483337 -4.712148119417769 -3.7651864498256558 0.0 -0.0 0.0 0.0 -2.9959336513237025 70.76570593926135 0.0 -0.0 0.0 0.0 -86.716698830641 0.0 32.785057875092356 -54.14862681834715 0.0 -64.57091191026679 0.0 0.0 0.0 60.02104267753594 0.0 53.46618874785391 65.55014363324011 0.0 67.29914024583427 -0.0 0.0 0.0 19.414971523945734 -38.601093370571995 0.0 -16.407693065426262 37.80503535520537 0.0 0.0 -0.0 0.0 -14.433396018303942 6.561199138640553 0.0 -13.021905085583077 33.71801380694669 0.0 0.0 -0.0 0.0
44.6684256196022 -57.35609531402588 0.006254017353057861 -4.635611162793738 -4.309901344858025 0.0 -0.0 0.0 0.0 -3.0661125551726434 70.91168868982274 0.0 -0.0 0.0 0.0 -86.00026537053272 0.0 34.19781529504554 -56.89739997458795 0.0 -62.4570097037123 0.0 0.0 0.0 63.27065934901685 0.0 49.67737018486859 72.96464910480614 0.0 60.124792546732635 -0.0 0.0 0.0 18.42949746717754 -45.12108735384838 0.0 -16.2607103168808 38.00553532549797 0.0 0.0 -0.0 0.0 -14.468111485217063 3.312803351227022 0.0 -12.970236013906487 33.140996969046206 0.0 0.0 -0.0 0.0
